<svg width="250" height="500" xmlns="http://www.w3.org/2000/svg">

 <g>
  <title>Layer 1</title>
  <path transform="rotate(67.1984 -123.315 4.68292)" stroke="null" id="svg_1" d="m-900.24135,195.8331l51.7951,-9.20338c51.7951,-9.89798 155.3853,-27.26285 258.97551,-46.36421c103.5902,-19.10136 207.1804,-36.46623 310.77061,-83.35139c103.5902,-46.88516 207.1804,-119.81762 310.77061,-175.90616c103.5902,-55.04665 207.1804,-93.24937 310.77061,-46.36421c103.5902,46.88516 207.1804,175.38522 258.97551,240.85079l51.7951,64.77098l0,55.56759l-51.7951,0c-51.7951,0 -155.3853,0 -258.97551,0c-103.5902,0 -207.1804,0 -310.77061,0c-103.5902,0 -207.1804,0 -310.77061,0c-103.5902,0 -207.1804,0 -310.77061,0c-103.5902,0 -207.1804,0 -258.97551,0l-51.7951,0z" fill="#65aff8"/>
 </g>
</svg>